# Blender3D v248 OBJ File: lanterne.blend
# www.blender3d.org
mtllib lanterne.mtl
v 0.023975 1.980143 -0.030701
v 0.001190 1.992354 0.008763
v 0.046759 1.980143 0.008763
v -0.021594 1.980143 -0.030701
v -0.044379 1.980143 0.008763
v -0.021594 1.980143 0.048227
v 0.023975 1.980143 0.048227
v -0.081859 1.346793 0.198633
v -0.060057 1.346793 0.088508
v -0.081859 1.346793 0.088508
v -0.188681 1.346793 0.088508
v -0.081859 1.346793 0.080089
v 0.191061 1.506285 -0.070983
v -0.188681 1.506285 -0.070983
v -0.081859 1.506284 -0.070983
v -0.081859 1.506285 -0.034908
v -0.081859 1.506285 0.198633
v -0.077417 1.506285 -0.031399
v -0.067783 1.506285 -0.023789
v -0.029561 1.506284 0.006404
v 0.077633 1.346793 -0.181108
v 0.077633 1.346793 0.198633
v 0.077633 1.346793 0.088508
v -0.081859 1.506285 0.088508
v -0.188681 1.506285 0.088508
v -0.081859 1.506285 0.088508
v -0.009619 1.506285 0.026634
v 0.077633 1.506284 -0.070983
v 0.051377 1.506285 0.088508
v 0.077633 1.506285 0.088508
v 0.077633 1.506285 0.198633
v 0.077633 1.346793 -0.070983
v 0.191061 1.506285 0.088508
v -0.081859 1.346793 -0.181108
v -0.081859 1.346793 -0.070983
v -0.077417 1.506285 -0.031399
v -0.188681 1.288496 0.198633
v -0.138407 1.288496 0.198633
v -0.188681 1.288496 -0.181108
v -0.374735 1.288496 -0.367162
v -0.188681 1.288496 -0.181108
v 0.191061 1.288496 -0.181108
v 0.377115 1.288496 -0.367162
v 0.191061 1.288496 -0.181108
v 0.191061 1.288496 0.198633
v 0.377115 1.288496 0.384687
v 0.191061 1.288496 0.198633
v -0.188681 1.288496 0.198633
v -0.374735 1.288496 0.384688
v -0.138407 1.288496 -0.181108
v 0.191061 1.288496 0.146805
v 0.191061 1.288496 -0.129280
v 0.191061 1.346793 -0.070983
v 0.191061 1.571101 0.198633
v 0.191061 1.571101 0.198633
v 0.377115 1.571101 0.384688
v 0.191061 1.571101 0.198633
v 0.377115 1.571101 -0.367162
v -0.188681 1.571101 -0.181108
v -0.374735 1.571101 -0.367162
v -0.188681 1.571101 -0.173947
v 0.191061 1.571101 -0.181108
v 0.191061 1.571101 -0.181108
v -0.188681 1.571101 0.198633
v -0.188681 1.571101 0.153324
v -0.188681 1.571101 0.198633
v -0.374735 1.571101 0.384687
v -0.188680 1.571101 -0.181108
v -0.144731 1.571101 -0.181108
v 0.191061 1.571101 -0.181108
v 0.191061 1.571101 -0.135799
v 0.144393 1.571101 -0.181108
v 0.183685 1.571101 -0.181108
v 0.077633 1.506284 -0.181108
v 0.144393 1.571101 0.198633
v -0.144731 1.571101 0.198633
v -0.188681 1.571101 -0.135799
v 0.191061 1.571101 0.153324
v -0.041785 1.844506 -0.034212
v -0.038274 1.855647 -0.059591
v -0.029254 1.837607 -0.043968
v -0.374735 1.609075 -0.367162
v 0.044165 1.844506 0.051738
v 0.040654 1.855647 0.077116
v 0.031634 1.837607 0.061494
v 0.377115 1.609075 0.384688
v 0.044165 1.844506 -0.034212
v 0.031634 1.837607 -0.043968
v 0.040654 1.855647 -0.059591
v -0.041785 1.844506 0.051738
v -0.029254 1.837607 0.061494
v -0.038274 1.855647 0.077116
v -0.056319 1.834228 0.008763
v 0.058700 1.834228 0.008763
v -0.151910 1.099392 -0.153431
v -0.152402 1.093309 -0.144829
v -0.374735 1.250522 -0.367162
v 0.175871 1.108222 -0.152717
v 0.163384 1.099392 -0.153431
v 0.377115 1.250522 -0.367162
v -0.152402 1.093309 0.162355
v -0.231541 0.115181 0.254695
v -0.151688 1.102139 0.174842
v -0.374735 1.250522 0.384688
v 0.167269 1.102139 0.174842
v 0.256216 0.115181 0.254695
v 0.175871 1.108221 0.174350
v 0.377115 1.250522 0.384687
v -0.231541 0.115181 -0.233062
v 0.323970 0.001259 -0.314017
v 0.323970 0.001259 0.331543
v -0.321590 0.001259 0.331543
v -0.321590 0.001259 -0.314017
v 0.323970 0.115181 -0.314017
v 0.323970 0.115181 0.331543
v -0.321590 0.115181 0.331543
v -0.321590 0.115181 -0.314017
v 0.256216 0.115181 -0.233062
v 0.080118 1.855647 0.008763
v 0.046759 1.901216 -0.070165
v 0.092328 1.901216 0.008763
v 0.040654 1.946785 -0.059591
v 0.080118 1.946785 0.008763
v -0.038274 1.946785 -0.059591
v -0.044379 1.901216 -0.070165
v -0.077738 1.855647 0.008763
v -0.089948 1.901216 0.008763
v -0.077738 1.946785 0.008763
v -0.038274 1.946785 0.077116
v -0.044379 1.901216 0.087691
v 0.046759 1.901216 0.087691
v 0.040654 1.946785 0.077116
v -0.081859 1.506284 -0.181108
v 0.191061 1.346793 0.088508
v -0.188681 1.346793 -0.070983
v 0.137678 1.288496 -0.181108
v 0.137678 1.288496 0.198633
v -0.188681 1.288496 -0.129280
v -0.188681 1.288496 0.146805
v 0.377115 1.609075 -0.367162
v -0.374735 1.609075 0.384687
v 0.183685 1.571101 0.198633
vt 0.956708 0.151007
vt 0.913415 0.120848
vt 0.956656 0.090583
vt 0.913466 0.181272
vt 0.870174 0.151114
vt 0.870122 0.090690
vt 0.913364 0.060424
vt 0.240654 1.000000
vt 0.221375 0.902664
vt 0.240958 0.902723
vt 0.000000 0.000000
vt 1.000000 0.000000
vt 1.000000 1.000000
vt 0.336905 0.903013
vt 0.240981 0.895286
vt 0.914403 0.439120
vt 0.674705 0.677762
vt 0.823923 0.483856
vt 0.774419 0.000016
vt 0.919964 0.144292
vt 0.909034 0.145721
vt 0.865664 0.151391
vt 0.845427 0.067738
vt 0.912223 0.000000
vt 0.840151 0.151597
vt 0.762113 0.152225
vt 0.745696 0.168874
vt 0.674688 0.101152
vt 0.777607 0.338881
vt 0.818877 0.484470
vt 0.002130 0.505411
vt 0.001848 0.438547
vt 0.034692 0.363265
vt 0.163167 0.067222
vt 0.162885 0.000359
vt 0.196645 0.142357
vt 0.337344 0.664131
vt 0.505113 0.454507
vt 0.504970 0.500288
vt 0.339416 0.000000
vt 0.506016 0.164851
vt 0.505873 0.210633
vt 0.326060 0.069290
vt 0.325770 0.000359
vt 0.359549 0.146750
vt 0.674688 0.338881
vt 0.465026 0.999952
vt 0.233955 0.753261
vt 0.233928 0.743736
vt 0.805388 0.028420
vt 0.785264 0.086875
vt 0.720710 0.163978
vt 0.323640 0.000000
vt 0.323887 0.058453
vt 0.486525 0.000000
vt 0.486779 0.060260
vt 0.288264 0.354276
vt 0.325508 0.442984
vt 0.197540 0.354478
vt 0.033797 0.151143
vt 0.161017 0.062068
vt 0.124522 0.150940
vt 0.162638 0.446599
vt 0.162885 0.505052
vt 0.125416 0.363062
vt 0.231070 0.246691
vt 0.231237 0.305144
vt 0.994314 0.634295
vt 0.994419 0.667992
vt 0.976019 0.577096
vt 0.697538 0.751743
vt 0.697710 0.691482
vt 0.930051 0.000000
vt 0.232685 0.308470
vt 0.928212 0.415840
vt 0.913944 0.445439
vt 0.911140 0.420728
vt 0.460676 0.443190
vt 0.446970 0.430203
vt 0.826830 0.003058
vt 0.881106 0.269531
vt 0.896355 0.241696
vt 0.897571 0.263551
vt 0.379860 0.569797
vt 0.000000 0.996941
vt 0.366154 0.556810
vt 0.842924 0.372749
vt 0.850720 0.390201
vt 0.835624 0.405868
vt 0.380214 0.429956
vt 0.966395 0.312622
vt 0.957991 0.294078
vt 0.974675 0.281267
vt 0.446616 0.570044
vt 0.476466 0.500234
vt 0.350364 0.499766
vt 0.654337 0.715155
vt 0.654924 0.703727
vt 0.930193 0.998725
vt 0.249330 0.714764
vt 0.264750 0.715690
vt 0.001184 1.000000
vt 0.469147 0.850837
vt 0.504599 0.012207
vt 0.493316 0.851738
vt 0.653549 0.279092
vt 0.929009 0.000000
vt 0.654441 0.295676
vt 0.669789 0.890309
vt 0.781792 0.019921
vt 0.691850 0.900661
vt 0.248815 0.280302
vt 0.000000 0.001275
vt 0.259435 0.279633
vt 0.298543 0.882992
vt 0.276190 0.892098
vt 0.112047 0.989069
vt 0.228826 0.016878
vt 0.844719 0.994043
vt 0.995117 0.016254
vt 0.106982 0.994043
vt 0.007324 0.020407
vt 0.847140 0.313039
vt 0.826830 0.303997
vt 0.961273 0.370705
vt 0.983470 0.383139
vt 0.460387 0.557159
vt 0.824301 1.000000
vt 0.366443 0.442841
vt 0.002529 0.000000
vt 0.488401 0.444791
vt 0.451167 0.358669
vt 0.450273 0.146547
vt 0.656847 0.459883
vt 0.649871 0.369744
vt 0.232485 0.741933
vt 0.232336 0.689675
vt 0.287370 0.142154
vt 0.698809 0.306951
vt 0.698981 0.246691
vt 0.694683 0.000000
vt 0.466440 0.743451
vt 0.465192 0.306662
vt 0.465026 0.248209
vt 0.232513 0.248209
vt 0.462170 0.000000
vt 0.927195 0.999952
vt 0.488655 0.505052
vt 0.327899 0.505410
vt 0.000000 1.000000
vt 0.488945 0.436121
vt 0.649450 0.495886
vt 0.649410 0.505411
vt 0.613158 0.358863
vt 0.522433 0.358661
vt 0.649450 0.000000
vt 0.232513 0.751743
vt 0.002856 0.999952
vt 0.160797 0.009810
vt 0.000299 0.071357
vt 0.000000 0.000359
vt 0.160755 0.000000
vt 0.697538 0.999952
vt 0.466468 0.753261
vt 0.325728 0.495241
vt 0.164715 0.434412
vt 0.325770 0.505052
vt 0.165015 0.505410
vt 0.982513 0.000048
vt 0.979657 1.000000
vt 0.965026 0.999952
vt 0.967882 0.000000
vt 0.962170 0.000000
vt 0.950394 1.000000
vt 0.947538 0.000048
vt 0.997144 0.000000
vt 1.000000 0.999952
vt 0.985369 1.000000
vt 0.944682 0.000000
vt 0.947538 0.999951
vt 0.932907 1.000000
vt 0.930051 0.000048
vt 0.490494 0.068931
vt 0.490784 0.000000
vt 0.614052 0.146742
vt 0.523328 0.146539
vt 0.507062 0.500288
vt 0.506924 0.455880
vt 0.674688 0.664131
vt 0.506163 0.212006
vt 0.000143 0.453498
vt 0.000904 0.209624
vt 0.166600 0.664131
vt 0.000000 0.499280
vt 0.327609 0.436480
vt 0.360443 0.358872
vt 0.337197 0.212006
vt 0.168672 0.664131
vt 0.170744 0.000000
vt 0.337344 0.164851
vt 0.001046 0.163843
vt 0.168672 0.000000
vt 0.336436 0.455880
vt 0.336298 0.500288
vt 0.672616 0.000000
vt 0.325770 0.656268
vt 0.235045 0.656471
vt 0.325134 0.505410
vt 0.234409 0.505613
vt 0.999382 0.000000
vt 1.000000 0.146465
vt 0.909276 0.146667
vt 0.908658 0.000202
vt 0.488037 0.652078
vt 0.397313 0.651875
vt 0.397930 0.505410
vt 0.488655 0.505613
vt 0.241397 0.761840
vt 0.337344 0.762129
vt 0.908658 0.288739
vt 0.909257 0.146667
vt 0.999382 0.288942
vt 0.999982 0.146870
vt 0.650086 0.459883
vt 0.740810 0.460086
vt 0.740174 0.610944
vt 0.649450 0.610741
vt 0.674768 0.240801
vt 0.403696 0.805014
vt 0.404135 0.664131
vt 0.506016 0.664438
vt 0.505577 0.805322
vt 0.072160 0.652078
vt 0.071543 0.505613
vt 0.162267 0.505411
vt 0.162885 0.651876
vt 0.999981 0.431014
vt 0.909257 0.431216
vt 0.908658 0.289144
vt 0.774041 0.818645
vt 0.675128 0.818944
vt 0.674688 0.678060
vt 0.773602 0.677762
vt 0.558108 0.651876
vt 0.558726 0.505411
vt 0.648832 0.652078
vt 0.649450 0.505613
vt 0.812486 0.340113
vt 0.241701 0.664563
vt 0.098446 0.664131
vt 0.097400 0.999568
vt 0.805388 0.999951
vt 0.809605 0.000000
vt 0.831206 0.000048
vt 0.826989 1.000000
vt 0.887057 1.000000
vt 0.882841 0.000048
vt 0.904442 0.000000
vt 0.908658 0.999952
vt 0.831206 0.999952
vt 0.835422 0.000000
vt 0.857023 0.000048
vt 0.852807 1.000000
vt 0.857023 0.999951
vt 0.861240 0.000000
vt 0.878624 1.000000
vt 0.889484 0.616351
vt 0.949727 0.541220
vt 0.968309 0.551738
vt 0.898746 0.638491
vt 0.913313 0.000000
vt 0.999898 0.060317
vt 0.988311 0.068427
vt 0.913327 0.016191
vt 0.838430 0.068612
vt 0.826830 0.060531
vt 0.827203 0.616196
vt 0.826830 0.638313
vt 0.987437 0.275237
vt 0.997592 0.392868
vt 0.826932 0.181379
vt 0.838519 0.173269
vt 0.913503 0.225506
vt 0.913517 0.241696
vt 0.917311 0.464806
vt 0.826875 0.419114
vt 1.000000 0.181165
vt 0.988400 0.173084
vt 0.947689 0.465935
vt 0.965955 0.464806
vt 0.500000 0.499192
vt 0.559551 0.429742
vt 0.936174 0.430899
vt 0.998471 0.500724
vt 1.000000 0.001531
vt 0.937330 0.053731
vt 0.501529 0.000000
vt 0.560707 0.052574
vt 0.462692 1.000697
vt 0.391178 1.000976
vt 0.461163 0.501505
vt 0.389649 0.501784
vt 0.462692 0.501589
vt 0.525964 0.501817
vt 0.527493 1.001009
vt 0.464221 1.000781
vt 0.529023 0.501817
vt 0.586709 0.500808
vt 0.527493 1.001010
vt 0.585179 1.000000
vt 0.659590 0.499161
vt 0.588238 1.000000
vt 0.661119 0.998353
vt 0.001529 0.500724
vt 0.000000 0.001531
vt 0.498471 0.000000
vn 0.255976 0.955319 -0.147788
vn 0.000000 0.955319 -0.295576
vn -0.255976 0.955319 -0.147788
vn -0.255976 0.955319 0.147788
vn 0.000000 0.955319 0.295576
vn 0.255976 0.955319 0.147788
vn 0.000000 1.000000 0.000000
vn 0.000000 0.000000 0.000000
vn 0.000000 0.000000 1.000000
vn 0.000000 -1.000000 0.000000
vn -0.000003 -1.000000 -0.000000
vn -0.970142 -0.242536 0.000000
vn -0.997765 0.066815 -0.000000
vn -0.000001 -1.000000 -0.000003
vn 0.000002 -1.000000 0.000004
vn 0.000000 0.000001 1.000000
vn -0.000001 1.000000 0.000000
vn 0.000000 0.000001 -1.000000
vn 1.000000 -0.000000 0.000001
vn -1.000000 0.000000 0.000000
vn 0.000000 -0.000000 -1.000000
vn 1.000000 0.000000 0.000000
vn -0.654654 -0.654653 -0.377964
vn 0.000001 0.816496 -0.577351
vn 0.654658 -0.654650 0.377963
vn -0.000005 0.816494 0.577354
vn 0.654654 -0.654654 -0.377964
vn 0.000000 0.816497 -0.577350
vn -0.654658 -0.654650 0.377963
vn 0.000000 0.816497 0.577350
vn -0.577350 0.816497 -0.000001
vn 0.577351 0.816496 -0.000001
vn -0.000002 -0.816497 -0.577349
vn 0.577350 -0.816497 -0.000001
vn -0.996743 0.080645 -0.000000
vn 0.000006 -0.816493 0.577355
vn -0.000001 0.080645 0.996743
vn 0.577352 -0.816495 -0.000003
vn 0.000000 0.080645 -0.996743
vn 0.000000 -0.816497 -0.577350
vn -0.577350 -0.816496 -0.000000
vn -0.577350 -0.816497 0.000000
vn 0.000000 -0.816497 0.577350
vn -0.000000 0.080645 0.996743
vn 0.577350 -0.816496 -0.000000
vn 0.577350 -0.816497 -0.000000
vn 0.996743 0.080645 0.000000
vn 0.000001 0.080645 -0.996743
vn -0.996743 0.080645 0.000001
vn 0.654652 -0.654655 0.377965
vn -0.654653 -0.654655 -0.377964
vn -0.654653 -0.654654 -0.377964
vn 0.000004 0.816494 0.577353
vn 0.000000 -0.654651 0.755931
vn -0.577351 0.816496 -0.000001
vn -0.577350 0.816496 -0.000000
vn -0.654652 -0.654655 0.377965
vn 0.000000 -0.654654 -0.755929
vn -0.000000 0.816496 -0.577351
vn 0.577350 0.816496 0.000000
vn 0.577350 0.816497 -0.000001
vn 0.654653 -0.654654 -0.377964
vn 0.654653 -0.654655 -0.377963
vn 1.000000 -0.000001 -0.000000
vn -1.000000 0.000000 -0.000001
vn -0.000001 -0.000000 -1.000000
vn 0.000000 1.000000 -0.000001
vn -0.000002 1.000000 -0.000002
vn 1.000000 -0.000001 -0.000001
vn -0.000035 -1.000000 0.000041
vn 0.000004 -1.000000 0.000002
vn 0.000001 1.000000 -0.000000
vn 0.843610 -0.226044 0.487059
vn 0.843610 -0.226045 0.487059
vn 0.843610 0.226045 0.487059
vn 0.654654 0.654654 0.377965
vn -0.000000 0.654654 0.755929
vn 0.000000 0.226045 0.974117
vn 0.000000 -0.226045 0.974117
vn -0.843610 -0.226045 0.487059
vn -0.843610 -0.226044 0.487059
vn -0.843610 0.226045 0.487058
vn -0.654654 0.654654 0.377964
vn -0.654654 0.654653 0.377965
vn -0.654654 0.654653 -0.377965
vn -0.843610 0.226045 -0.487058
vn -0.843610 -0.226044 -0.487059
vn 0.000000 -0.226044 -0.974117
vn 0.000000 0.226045 -0.974117
vn 0.000000 0.654653 -0.755929
vn 0.000000 0.654654 -0.755929
vn 0.654654 0.654654 -0.377964
vn 0.843610 0.226045 -0.487058
vn 0.843610 -0.226044 -0.487058
vn -1.000000 -0.000001 -0.000000
vn -0.000000 -0.000002 1.000000
vn -0.000001 0.000001 1.000000
vn 1.000000 0.000002 0.000001
usemtl Material_granit2.jpg
s off
f 1/1/1 2/2/1 3/3/1
f 2/2/2 1/1/2 4/4/2
f 5/5/3 2/2/3 4/4/3
f 6/6/4 2/2/4 5/5/4
f 7/7/5 2/2/5 6/6/5
f 3/3/6 2/2/6 7/7/6
f 8/8/7 9/9/7 10/10/7
usemtl Material
f 10/11/8 9/12/8 11/13/8
usemtl Material_granit2.jpg
f 11/14/7 9/9/7 12/15/7
usemtl Material
f 13/11/9 14/12/9 15/13/9
usemtl Material_granit2.jpg
f 14/16/10 13/17/10 16/18/10
f 17/19/10 18/20/10 19/21/10
f 17/19/11 19/21/11 20/22/11
usemtl Material
f 21/11/12 22/12/12 23/13/12
f 24/11/10 25/12/10 26/13/10
usemtl Material_granit2.jpg
f 26/23/10 25/24/10 27/25/10
usemtl Material
f 28/11/9 13/12/9 15/13/9
usemtl Material_granit2.jpg
f 29/26/10 30/27/10 31/28/10
usemtl Material
f 21/11/13 23/12/13 32/13/13
usemtl Material_granit2.jpg
f 31/28/10 27/25/10 29/26/10
usemtl Material
f 29/11/8 33/12/8 30/13/8
usemtl Material_granit2.jpg
f 19/21/14 13/29/14 20/22/14
f 20/22/15 13/29/15 27/25/15
f 18/20/10 13/29/10 19/21/10
usemtl Material
f 34/11/10 35/12/10 12/13/10
usemtl Material_granit2.jpg
f 16/18/10 13/17/10 36/30/10
usemtl Material
f 13/11/10 18/12/10 36/13/10
usemtl Material_granit2.jpg
f 19/21/10 25/24/10 18/20/10
usemtl Material
f 25/11/10 36/12/10 18/13/10
usemtl Material_granit2.jpg
f 37/31/16 38/32/16 8/33/16
usemtl Material
f 39/11/8 40/12/8 41/13/8
f 42/11/7 43/12/7 44/13/7
f 45/11/17 46/12/17 47/13/17
f 37/11/8 48/12/8 49/13/8
usemtl Material_granit2.jpg
f 50/34/18 39/35/18 34/36/18
f 46/37/17 51/38/17 47/39/17
f 43/40/7 42/41/7 52/42/7
f 52/43/19 42/44/19 53/45/19
usemtl Material
f 18/11/10 17/12/10 36/13/10
usemtl Material_granit2.jpg
f 17/46/10 16/18/10 36/30/10
usemtl Material
f 48/11/8 37/12/8 25/13/8
f 54/11/9 45/12/9 55/13/9
f 54/11/10 55/12/10 56/13/10
f 57/11/7 55/12/7 58/13/7
f 59/11/8 39/12/8 41/13/8
usemtl Material_granit2.jpg
f 60/47/10 59/48/10 61/49/10
usemtl Material
f 62/11/10 63/12/10 58/13/10
usemtl Material_granit2.jpg
f 64/50/20 65/51/20 25/52/20
usemtl Material
f 66/11/10 67/12/10 64/13/10
usemtl Material_granit2.jpg
f 39/35/21 68/53/21 69/54/21
usemtl Material
f 39/11/21 59/12/21 68/13/21
f 59/11/10 60/12/10 68/13/10
usemtl Material_granit2.jpg
f 42/44/22 70/55/22 71/56/22
usemtl Material
f 42/11/22 62/12/22 70/13/22
f 62/11/10 58/12/10 70/13/10
f 72/11/8 69/12/8 73/13/8
usemtl Material_granit2.jpg
f 74/57/21 72/58/21 21/59/21
f 22/60/9 75/61/9 31/62/9
f 76/63/9 66/64/9 17/65/9
f 67/11/10 66/66/10 76/67/10
f 77/68/20 61/69/20 14/70/20
f 57/71/10 78/72/10 58/73/10
f 60/47/10 61/49/10 65/74/10
usemtl Material
f 61/11/7 77/12/7 65/13/7
usemtl Material_granit2.jpg
f 79/75/23 80/76/23 81/77/23
f 79/78/24 81/79/24 82/80/24
f 83/81/25 84/82/25 85/83/25
f 85/84/26 86/85/26 83/86/26
f 87/87/27 88/88/27 89/89/27
f 82/80/28 81/79/28 88/90/28
f 90/91/29 91/92/29 92/93/29
f 86/85/30 85/84/30 91/94/30
f 93/95/31 79/78/31 82/80/31
f 94/96/32 83/86/32 86/85/32
f 95/97/33 96/98/33 97/99/33
f 98/100/34 99/101/34 100/102/34
f 101/103/35 102/104/35 103/105/35
f 103/106/36 104/107/36 101/108/36
f 105/109/37 106/110/37 107/111/37
f 107/112/38 108/113/38 105/114/38
f 101/103/35 96/115/35 102/104/35
f 95/116/39 99/117/39 109/118/39
f 100/102/40 99/101/40 95/97/40
f 100/102/40 95/97/40 97/99/40
f 96/98/41 101/108/41 104/107/41
f 96/98/42 104/107/42 97/99/42
f 103/106/43 105/114/43 108/113/43
f 103/106/43 108/113/43 104/107/43
f 106/110/44 105/109/44 102/104/44
f 105/109/44 103/105/44 102/104/44
f 98/100/45 100/102/45 108/113/45
f 98/100/46 108/113/46 107/112/46
f 98/119/47 107/111/47 106/110/47
f 98/119/47 106/110/47 118/120/47
f 99/117/48 98/121/48 118/122/48
f 99/117/39 118/122/39 109/118/39
f 96/115/49 95/116/49 109/118/49
f 96/115/35 109/118/35 102/104/35
f 83/81/50 94/123/50 119/124/50
f 83/81/50 119/124/50 84/82/50
f 79/75/51 93/125/51 126/126/51
f 79/75/52 126/126/52 80/76/52
f 91/94/53 90/127/53 141/128/53
f 91/94/30 141/128/30 86/85/30
f 91/92/54 85/83/54 84/82/54
f 91/92/54 84/82/54 92/93/54
f 141/128/55 90/127/55 93/95/55
f 141/128/56 93/95/56 82/80/56
f 93/125/57 90/91/57 126/126/57
f 90/91/57 92/93/57 126/126/57
f 88/88/58 81/77/58 80/76/58
f 88/88/58 80/76/58 89/89/58
f 87/129/59 140/130/59 88/90/59
f 140/130/28 82/80/28 88/90/28
f 94/96/60 86/85/60 140/130/60
f 94/96/61 140/130/61 87/129/61
f 87/87/62 89/89/62 119/124/62
f 87/87/63 119/124/63 94/123/63
f 71/56/64 78/131/64 33/132/64
f 71/56/64 33/132/64 13/133/64
f 65/51/20 77/134/20 25/52/20
f 77/134/20 14/135/20 25/52/20
f 31/62/9 75/61/9 76/63/9
f 31/62/9 76/63/9 17/65/9
f 67/11/10 76/67/10 142/136/10
f 76/67/8 75/137/8 142/136/8
f 69/54/21 72/58/21 74/57/21
f 69/54/21 74/57/21 133/138/21
f 71/139/10 70/140/10 58/73/10
f 71/139/10 58/73/10 78/72/10
f 60/141/10 73/142/10 69/143/10
f 60/141/10 69/143/10 68/144/10
f 65/74/10 64/145/10 67/146/10
f 65/74/10 67/146/10 60/47/10
f 57/71/10 58/73/10 56/147/10
f 57/71/10 56/147/10 55/71/10
f 57/148/64 47/149/64 78/131/64
f 47/149/64 33/132/64 78/131/64
usemtl Material
f 55/11/64 45/12/64 47/13/64
f 55/11/64 47/13/64 57/150/64
usemtl Material_granit2.jpg
f 41/148/65 138/151/65 61/152/65
f 41/148/20 61/152/20 59/153/20
f 61/152/20 138/151/20 14/154/20
f 138/151/20 135/155/20 14/154/20
f 66/50/20 64/50/20 37/156/20
f 64/50/20 25/52/20 37/156/20
f 66/64/9 37/31/9 17/65/9
f 37/31/9 8/33/9 17/65/9
f 142/136/10 54/157/10 56/158/10
f 142/136/10 56/158/10 67/11/10
f 142/159/9 75/61/9 137/160/9
f 75/61/9 22/60/9 137/160/9
f 142/159/9 137/160/9 45/161/9
f 142/159/9 45/161/9 54/162/9
f 73/142/10 60/141/10 58/163/10
f 73/142/10 58/163/10 63/164/10
f 73/165/21 136/166/21 72/58/21
f 136/166/66 21/59/66 72/58/66
usemtl Material
f 63/11/21 62/12/21 42/13/21
f 63/11/21 42/13/21 44/150/21
usemtl Material_granit2.jpg
f 73/165/21 63/167/21 44/168/21
f 73/165/21 44/168/21 136/166/21
f 140/169/22 86/170/22 56/171/22
f 140/169/22 56/171/22 58/172/22
f 86/173/9 141/171/9 67/174/9
f 86/173/9 67/174/9 56/175/9
f 141/176/20 82/177/20 60/178/20
f 141/176/20 60/178/20 67/169/20
f 82/179/21 140/180/21 58/181/21
f 82/179/21 58/181/21 60/182/21
f 139/183/20 48/184/20 25/185/20
f 139/183/20 25/185/20 11/186/20
f 39/187/67 50/188/67 40/189/67
f 50/188/67 136/190/67 40/189/67
f 138/151/20 139/183/20 11/186/20
f 138/151/20 11/186/20 135/155/20
f 139/191/7 138/192/7 49/193/7
f 139/191/7 49/193/7 48/194/7
f 8/33/16 38/32/16 22/60/16
f 38/32/16 137/160/16 22/60/16
f 51/195/22 52/43/22 53/45/22
f 51/195/22 53/45/22 134/196/22
f 43/40/7 52/42/7 46/37/7
f 52/42/17 51/38/17 46/37/17
f 136/166/18 50/34/18 21/59/18
f 50/34/18 34/36/18 21/59/18
f 137/197/7 49/198/7 46/199/7
f 137/197/67 46/199/67 45/200/67
f 42/44/19 71/56/19 53/45/19
f 71/56/22 13/133/22 53/45/22
f 138/192/17 41/201/17 40/202/17
f 138/192/7 40/202/7 49/193/7
f 38/203/7 37/204/7 49/198/7
f 38/203/67 49/198/67 137/197/67
f 43/205/7 40/189/7 136/190/7
f 43/205/68 136/190/68 44/41/68
f 39/35/21 69/54/21 34/36/21
f 69/54/21 133/138/21 34/36/21
f 51/195/64 134/196/64 33/132/64
f 51/195/69 33/132/69 47/149/69
f 33/206/21 134/207/21 30/208/21
f 134/207/21 23/209/21 30/208/21
f 31/210/20 30/211/20 23/212/20
f 31/210/20 23/212/20 22/213/20
f 15/214/22 35/215/22 34/216/22
f 15/214/22 34/216/22 133/217/22
f 35/218/7 135/219/7 12/15/7
f 135/219/7 11/14/7 12/15/7
f 135/220/9 35/221/9 14/222/9
f 35/221/9 15/223/9 14/222/9
f 53/224/9 13/225/9 28/226/9
f 53/224/9 28/226/9 32/227/9
f 27/25/10 13/29/10 33/228/10
f 27/25/10 33/228/10 29/26/10
f 134/229/7 53/230/7 32/231/7
f 134/229/7 32/231/7 23/232/7
f 21/233/20 32/234/20 28/235/20
f 21/233/20 28/235/20 74/236/20
f 24/237/21 10/238/21 11/239/21
f 24/237/21 11/239/21 25/222/21
f 74/240/10 28/241/10 15/242/10
f 74/240/10 15/242/10 133/243/10
f 8/244/22 10/245/22 17/246/22
f 10/245/22 24/247/22 17/246/22
f 25/24/10 19/21/10 27/25/10
f 19/21/70 20/22/70 27/25/70
f 36/30/10 25/248/10 14/16/10
f 36/30/10 14/16/10 16/18/10
f 17/19/71 20/22/71 27/25/71
f 17/19/10 27/25/10 31/28/10
f 34/249/7 12/15/7 9/9/7
f 34/249/72 9/9/72 21/250/72
f 8/8/7 22/251/7 9/9/7
f 22/251/7 21/250/7 9/9/7
f 97/252/20 104/253/20 49/254/20
f 97/252/20 49/254/20 40/255/20
f 104/256/9 108/257/9 46/258/9
f 104/256/9 46/258/9 49/259/9
f 108/260/22 100/261/22 43/262/22
f 108/260/22 43/262/22 46/263/22
f 100/264/21 97/265/21 40/257/21
f 100/264/21 40/257/21 43/266/21
f 84/267/73 119/268/73 121/269/73
f 84/267/74 121/269/74 131/270/74
f 131/271/75 121/272/75 123/273/75
f 131/271/75 123/273/75 132/274/75
f 132/274/76 123/273/76 3/3/76
f 132/274/76 3/3/76 7/7/76
f 129/275/77 132/274/77 7/7/77
f 129/275/77 7/7/77 6/6/77
f 130/276/78 131/271/78 132/274/78
f 130/276/78 132/274/78 129/275/78
f 92/277/79 84/267/79 131/270/79
f 92/277/79 131/270/79 130/278/79
f 126/126/80 92/93/80 130/279/80
f 126/126/81 130/279/81 127/280/81
f 127/281/82 130/276/82 129/275/82
f 127/281/82 129/275/82 128/282/82
f 128/282/83 129/275/83 6/6/83
f 128/282/84 6/6/84 5/5/84
f 124/283/85 128/282/85 5/5/85
f 124/283/85 5/5/85 4/4/85
f 125/284/86 127/281/86 128/282/86
f 125/284/86 128/282/86 124/283/86
f 80/76/87 126/126/87 127/280/87
f 80/76/87 127/280/87 125/285/87
f 89/89/88 80/76/88 125/285/88
f 89/89/88 125/285/88 120/286/88
f 120/287/89 125/284/89 124/283/89
f 120/287/89 124/283/89 122/288/89
f 4/4/90 1/1/90 122/288/90
f 4/4/91 122/288/91 124/283/91
f 1/1/92 3/3/92 123/273/92
f 1/1/92 123/273/92 122/288/92
f 121/272/93 120/287/93 122/288/93
f 121/272/93 122/288/93 123/273/93
f 119/268/94 89/289/94 120/290/94
f 119/268/94 120/290/94 121/269/94
f 116/291/7 102/292/7 109/293/7
f 116/291/7 109/293/7 117/294/7
f 114/295/7 118/296/7 115/297/7
f 118/296/7 106/298/7 115/297/7
f 109/293/7 118/296/7 114/295/7
f 109/293/7 114/295/7 117/294/7
f 106/298/7 102/292/7 115/297/7
f 102/292/7 116/291/7 115/297/7
f 114/299/18 110/300/18 117/301/18
f 110/300/18 113/302/18 117/301/18
f 112/303/95 116/304/95 117/305/95
f 112/303/95 117/305/95 113/306/95
f 111/307/96 115/308/96 112/309/96
f 115/308/97 116/310/97 112/309/97
f 110/308/64 114/311/64 111/312/64
f 114/311/98 115/313/98 111/312/98
f 110/314/10 111/315/10 112/316/10
f 110/314/10 112/316/10 113/291/10
